# xmcd
#
# Track frame offsets: 
#        150
#        14402
#        28232
#        43025
#        52037
#        59177
#        72872
#        82807
#        94005
#        109472
#
# Disc length: 2116 seconds
#
# Revision: 28
# Processed by: cddbd v1.5.2PL0 Copyright (c) Steve Scherf et al.
# Submitted via: ExactAudioCopyFreeDBPlugin 1.0
#
DISCID=8c08420a
DTITLE=The Doors - Strange days
DYEAR=1967
DGENRE=Blues
TTITLE0=Strange days
TTITLE1=You're lost little girl
TTITLE2=Love me two times
TTITLE3=Unhappy girl
TTITLE4=Horse latitudes
TTITLE5=Moonlight drive
TTITLE6=People are strange
TTITLE7=My eyes have seen you
TTITLE8=I can't see your face in my mind
TTITLE9=When the music's vver
EXTD=YEAR: 1967
EXTT0=Jim Morrison - John Densmore - Ray Manzarek - Robbie Krieger
EXTT1=Jim Morrison - John Densmore - Ray Manzarek - Robbie Krieger
EXTT2=Jim Morrison - John Densmore - Ray Manzarek - Robbie Krieger
EXTT3=Jim Morrison - John Densmore - Ray Manzarek - Robbie Krieger
EXTT4=Jim Morrison - John Densmore - Ray Manzarek - Robbie Krieger
EXTT5=Jim Morrison - John Densmore - Ray Manzarek - Robbie Krieger
EXTT6=Jim Morrison - John Densmore - Ray Manzarek - Robbie Krieger
EXTT7=Jim Morrison - John Densmore - Ray Manzarek - Robbie Krieger
EXTT8=Jim Morrison - John Densmore - Ray Manzarek - Robbie Krieger
EXTT9=Jim Morrison - John Densmore - Ray Manzarek - Robbie Krieger
PLAYORDER=
